<svg width="24" height="24" viewBox="0 0 24 24" fill="none" xmlns="http://www.w3.org/2000/svg">
<path d="M7.19188 6.36081C7.30424 6.47319 7.36736 6.62553 7.36736 6.78436C7.36736 6.94319 7.30424 7.09553 7.19188 7.20791C6.5604 7.83868 6.05949 8.58752 5.71773 9.41167C5.37598 10.2358 5.20008 11.1191 5.20008 12.0112C5.20008 12.9033 5.37598 13.7866 5.71773 14.6107C6.05949 15.4349 6.5604 16.1837 7.19188 16.8145C7.30113 16.9276 7.36153 17.079 7.36009 17.2362C7.35865 17.3933 7.29548 17.5436 7.18418 17.6547C7.07288 17.7658 6.92235 17.8287 6.76503 17.83C6.60771 17.8313 6.45617 17.7708 6.34306 17.6616C3.21898 14.5409 3.21898 9.48149 6.34306 6.36081C6.45556 6.24857 6.60806 6.18552 6.76707 6.18552C6.92607 6.18552 7.07938 6.24857 7.19188 6.36081ZM17.6569 6.36081C20.781 9.48149 20.781 14.5409 17.6569 17.6624C17.5432 17.7683 17.3928 17.8259 17.2373 17.8232C17.0819 17.8204 16.9336 17.7575 16.8236 17.6477C16.7137 17.5379 16.6507 17.3897 16.648 17.2345C16.6452 17.0792 16.7029 16.9289 16.8089 16.8153C17.4405 16.1845 17.9415 15.4356 18.2834 14.6114C18.6252 13.7872 18.8011 12.9038 18.8011 12.0116C18.8011 11.1194 18.6252 10.236 18.2834 9.41181C17.9415 8.58758 17.4405 7.83869 16.8089 7.20791C16.75 7.15304 16.7027 7.08687 16.6699 7.01334C16.6371 6.93982 16.6195 6.86046 16.618 6.77998C16.6166 6.6995 16.6314 6.61957 16.6616 6.54493C16.6918 6.4703 16.7367 6.40251 16.7937 6.34559C16.8507 6.28868 16.9185 6.24381 16.9932 6.21367C17.068 6.18352 17.148 6.16872 17.2285 6.17014C17.3091 6.17156 17.3886 6.18917 17.4622 6.22193C17.5358 6.25469 17.602 6.30192 17.6569 6.36081ZM9.45434 8.62081C9.5667 8.73319 9.62981 8.88552 9.62981 9.04436C9.62981 9.20319 9.5667 9.35553 9.45434 9.46791C9.11991 9.80186 8.85463 10.1983 8.67363 10.6347C8.49264 11.0711 8.39948 11.5388 8.39948 12.0112C8.39948 12.4836 8.49264 12.9513 8.67363 13.3877C8.85463 13.8241 9.11991 14.2205 9.45434 14.5545C9.56032 14.6681 9.61802 14.8184 9.61528 14.9737C9.61254 15.1289 9.54957 15.2771 9.43963 15.3869C9.3297 15.4967 9.18139 15.5596 9.02594 15.5624C8.8705 15.5651 8.72006 15.5075 8.60632 15.4016C7.70619 14.5024 7.20051 13.2828 7.20051 12.0112C7.20051 10.7396 7.70619 9.52002 8.60632 8.62081C8.71882 8.50856 8.87132 8.44552 9.03033 8.44552C9.18933 8.44552 9.34183 8.50856 9.45434 8.62081ZM15.3945 8.62081C16.2946 9.52002 16.8003 10.7396 16.8003 12.0112C16.8003 13.2828 16.2946 14.5024 15.3945 15.4016C15.3392 15.4589 15.273 15.5046 15.1998 15.536C15.1266 15.5675 15.0479 15.584 14.9682 15.5848C14.8885 15.5855 14.8095 15.5704 14.7358 15.5403C14.662 15.5101 14.595 15.4657 14.5386 15.4094C14.4823 15.3532 14.4377 15.2863 14.4075 15.2126C14.3773 15.139 14.3621 15.0601 14.3627 14.9805C14.3634 14.9009 14.3799 14.8223 14.4113 14.7491C14.4427 14.676 14.4884 14.6098 14.5457 14.5545C14.88 14.2206 15.1452 13.8241 15.3261 13.3878C15.507 12.9515 15.6001 12.4839 15.6001 12.0116C15.6001 11.5393 15.507 11.0717 15.3261 10.6354C15.1452 10.1991 14.88 9.80264 14.5457 9.4687C14.4397 9.35509 14.382 9.20481 14.3847 9.04953C14.3875 8.89426 14.4504 8.74611 14.5604 8.63629C14.6703 8.52648 14.8186 8.46358 14.9741 8.46084C15.1295 8.4581 15.2799 8.51573 15.3937 8.6216L15.3945 8.62081ZM12 10.8129C12.3183 10.8129 12.6235 10.9392 12.8485 11.164C13.0736 11.3888 13.2 11.6937 13.2 12.0116C13.2 12.3295 13.0736 12.6344 12.8485 12.8592C12.6235 13.084 12.3183 13.2103 12 13.2103C11.6817 13.2103 11.3765 13.084 11.1515 12.8592C10.9264 12.6344 10.8 12.3295 10.8 12.0116C10.8 11.6937 10.9264 11.3888 11.1515 11.164C11.3765 10.9392 11.6817 10.8129 12 10.8129Z" fill="#F6F6F6"/>
</svg>
